<?xml version="1.0" encoding="UTF-8" standalone="no"?>
<!-- Created with Inkscape (http://www.inkscape.org/) -->

<svg
   xmlns:dc="http://purl.org/dc/elements/1.1/"
   xmlns:cc="http://creativecommons.org/ns#"
   xmlns:rdf="http://www.w3.org/1999/02/22-rdf-syntax-ns#"
   xmlns:svg="http://www.w3.org/2000/svg"
   xmlns="http://www.w3.org/2000/svg"
   xmlns:sodipodi="http://sodipodi.sourceforge.net/DTD/sodipodi-0.dtd"
   xmlns:inkscape="http://www.inkscape.org/namespaces/inkscape"
   width="114.39708mm"
   height="68.556984mm"
   viewBox="0 0 405.34398 242.91845"
   id="svg4949"
   version="1.1"
   inkscape:version="0.91 r13725"
   sodipodi:docname="BBI Logo SVG.svg">
  <defs
     id="defs4951" />
  <sodipodi:namedview
     id="base"
     pagecolor="#ffffff"
     bordercolor="#666666"
     borderopacity="1.0"
     inkscape:pageopacity="0.0"
     inkscape:pageshadow="2"
     inkscape:zoom="1.4"
     inkscape:cx="183.61298"
     inkscape:cy="212.91302"
     inkscape:document-units="px"
     inkscape:current-layer="g4930"
     showgrid="false"
     fit-margin-top="0"
     fit-margin-left="0"
     fit-margin-right="0"
     fit-margin-bottom="0"
     inkscape:window-width="1920"
     inkscape:window-height="1018"
     inkscape:window-x="-8"
     inkscape:window-y="-8"
     inkscape:window-maximized="1" />
  <metadata
     id="metadata4954">
    <rdf:RDF>
      <cc:Work
         rdf:about="">
        <dc:format>image/svg+xml</dc:format>
        <dc:type
           rdf:resource="http://purl.org/dc/dcmitype/StillImage" />
        <dc:title></dc:title>
      </cc:Work>
    </rdf:RDF>
  </metadata>
  <g
     inkscape:label="Layer 1"
     inkscape:groupmode="layer"
     id="layer1"
     transform="translate(25.529136,-590.90298)">
    <g
       transform="translate(-25.78159,590.56784)"
       id="g4930">
      <path
         sodipodi:nodetypes="cccccccccc"
         inkscape:connector-curvature="0"
         id="path4928"
         d="m 215.91855,71.367914 8.94282,43.510046 -20.72985,22.16943 39.44431,23.89692 58.7346,-0.86374 c 0,0 64.95949,-5.02991 103.23374,-49.81892 l -4.27531,-35.424042 -28.70569,-8.957803 c -18.94827,14.248108 -34.56733,24.497656 -65.76821,26.565539 -26.72909,2.163308 -51.61391,-4.065068 -90.87641,-21.07743 z"
         style="fill:#f1b047;fill-opacity:1;fill-rule:evenodd;stroke:#f1b047;stroke-width:0.1;stroke-linecap:butt;stroke-linejoin:miter;stroke-miterlimit:4;stroke-dasharray:none;stroke-opacity:1" />
      <path
         sodipodi:nodetypes="ccccsccscccc"
         inkscape:connector-curvature="0"
         id="path4922"
         d="M 84.850505,74.931917 54.415877,207.01066 c 0,0 -10.315531,38.98475 38.004739,35.98934 l 90.399994,0.20359 c 0,0 69.53885,-0.48784 99.0448,-2.64663 9.64267,-0.7055 21.47837,-8.75421 25.65189,-13.53849 l -10.68828,-29.52004 c 0,0 -7.66285,4.99588 -16.8961,7.92987 -8.21631,2.61084 -16.82862,3.20759 -35.42562,3.0638 l -146.582227,0 c -5.787006,0.29629 -6.976781,-4.1025 -5.598626,-12.82595 l 4.682487,-20.8676 205.215126,0 26.77161,-123.475175 c 0,0 1.11973,-29.011066 -38.17245,-28.909273 l -166.73729,0 z"
         style="fill:#52ae4e;fill-opacity:1;fill-rule:evenodd;stroke:#52ae4e;stroke-width:0.1;stroke-linecap:butt;stroke-linejoin:miter;stroke-miterlimit:4;stroke-dasharray:none;stroke-opacity:1" />
      <path
         inkscape:connector-curvature="0"
         id="path4924"
         d="m 114.41557,89.394038 -10.07752,50.998402 170.09646,0 16.4905,-69.524768 c 0,0 2.03586,-10.382908 -3.86814,-10.484701 l -169.28212,0 z"
         style="opacity:1;fill:#ffffff;fill-opacity:1;fill-rule:evenodd;stroke:none;stroke-width:0.1;stroke-linecap:butt;stroke-linejoin:miter;stroke-miterlimit:4;stroke-dasharray:none;stroke-opacity:1" />
      <path
         sodipodi:nodetypes="ccccccc"
         inkscape:connector-curvature="0"
         id="path4928-6"
         d="m 215.90731,71.407424 8.94282,43.510046 -20.72985,22.16943 c 1.41335,1.08278 4.20558,3.26181 4.20558,3.26181 l 66.07168,-0.006 11.35684,-47.938656 C 265.95104,90.619888 244.8303,83.939687 215.90731,71.407424 Z"
         style="opacity:1;fill:#f1b047;fill-opacity:1;fill-rule:evenodd;stroke:#f1b047;stroke-width:0.1;stroke-linecap:butt;stroke-linejoin:miter;stroke-miterlimit:4;stroke-dasharray:none;stroke-opacity:1" />
      <path
         sodipodi:nodetypes="ccccccccc"
         inkscape:connector-curvature="0"
         id="path4926"
         d="M 178.0014,126.28535 123.15232,95.196251 c 0,0 -56.068197,-37.037483 -122.72044796,-29.839616 L 15.835308,37.140995 7.917654,3.1670615 c 0,0 51.53673,-14.5396925 129.993476,23.4650475 l 53.40818,27.927725 8.7814,42.32346 z"
         style="fill:#3e8431;fill-opacity:1;fill-rule:evenodd;stroke:#3e8431;stroke-width:0.2;stroke-linecap:butt;stroke-linejoin:miter;stroke-miterlimit:4;stroke-dasharray:none;stroke-opacity:1" />
    </g>
  </g>
</svg>
