<svg width="60" height="60" xmlns="http://www.w3.org/2000/svg" version="1"><path fill-rule="evenodd" fill="#dd402f" d="M170.578 41.137h-145.3l-1.544 8.75-16.376-19.88 23.386-19.88-1.539 8.734H64.53c-.172-.35-.347-.696-.532-1.04h12.44c-.189-.35-.386-.697-.591-1.037H47.716a25.42 25.42 0 0 0-1.39-2.08h15.687a24.752 24.752 0 0 0-.815-1.038h12.445c-.293-.356-.596-.7-.908-1.04H44.606a25.784 25.784 0 0 0-2.143-2.078h15.69a26.26 26.26 0 0 0-1.289-1.04h12.443c-.48-.363-.972-.71-1.477-1.039H39.698a25.676 25.676 0 0 0-3.876-2.08H51.51c-.934-.4-1.899-.747-2.886-1.038h12.444a25.683 25.683 0 0 0-7.253-1.038H25.687C11.498 4.313 0 15.813 0 30.001c0 14.185 11.499 25.686 25.686 25.686 9.352 0 17.535-5 22.028-12.471H169.93l.647-2.08.001.001z"/></svg>