<svg width="48" height="48" xmlns="http://www.w3.org/2000/svg"><path style="display:inline;fill:#fff;fill-opacity:1;stroke-width:4.67494" d="M0 11.5h48v24H0z"/><path stroke="null" stroke-width=".45" fill-rule="evenodd" fill="#008055" d="M8.528 14.329a2.609 2.609 0 0 0-2.233 1.297L2.817 21.7h11.98v-5.528h5.507V21.7h24.883l-1.397-6.49c-.133-.619-.476-.878-.96-.878L8.527 14.33zm-.313 1.843h4.735v4.607H5.577l2.638-4.607zm13.936 0h9.216v4.606H22.15v-4.606zm11.056 0h9.214l.928 4.606H33.207v-4.606zm-30.39 5.99v2.768h11.974v-2.77H2.817zm17.487 0v2.768h24.883v-2.77H20.304zm-17.487 3.21v3.688l-.927.92v.92h4.15v-.004a3.217 3.217 0 0 1 3.224-3.223 3.215 3.215 0 0 1 3.221 3.223v.924H31.83v-.923a3.216 3.216 0 0 1 3.224-3.224 3.216 3.216 0 0 1 3.224 3.224v.923l7.832-.92v-.92l-.921-.92v-3.687H20.306V30.9h-5.507v-5.528H2.817zm6.443 2.76a2.77 2.77 0 1 0 .002 5.539 2.77 2.77 0 0 0-.002-5.539zm25.79 0a2.77 2.77 0 1 0 .002 5.539 2.77 2.77 0 0 0-.002-5.539zM9.242 29.513h.02a1.385 1.385 0 1 1-.021 0zm25.79 0h.02a1.385 1.385 0 1 1-.021 0z"/></svg>