<svg xmlns="http://www.w3.org/2000/svg" width="153.19" height="74.88" viewBox="0 0 40.532 19.812"><g data-name="Layer 2"><path class="cls-1" d="M107.33 18.31a10.48 10.48 0 0 0-4.63-4.19 12.71 12.71 0 0 0 3.3-2.86 6.38 6.38 0 0 0-.3-7.23c-2-2.6-4.15-3.82-8.34-3.9H86.09V22h6.67V6.24s2.78-.11 5.3 0 3 4.82-.19 4.89c-1.7.07-3.63 0-3.63 0v5.56s2.52.07 3.52 0c2.89-.19 4.27 7.23-.07 7.52a13 13 0 0 1-1.85 0H59.76V6.31h5.56V22H72V6.31h5V22h6.67V3c0-1.3-1.85-2.86-3.6-2.86H72V3s-.15-.07-.37-.93C71.38.94 70.15.12 68.49.12H53.1v24.1h-3.52l-4.71-11.31L51.42.17h-6.93l-6.23 12.26V.12h-6.67V30h6.67V13.54L44.94 30h54.69a8.82 8.82 0 0 0 5.74-2.15c4-4 2.82-7.78 1.96-9.54z" style="fill:#e42127" transform="matrix(.52917 0 0 .52917 -16.716 1.937)" data-name="Layer 1"/></g></svg>