<?xml version="1.0" encoding="utf-8"?>
<!-- Generator: Adobe Illustrator 18.0.0, SVG Export Plug-In . SVG Version: 6.00 Build 0)  -->
<!DOCTYPE svg PUBLIC "-//W3C//DTD SVG 1.1//EN" "http://www.w3.org/Graphics/SVG/1.1/DTD/svg11.dtd">
<svg version="1.1" id="Layer_1" xmlns="http://www.w3.org/2000/svg" xmlns:xlink="http://www.w3.org/1999/xlink" x="0px" y="0px"
	 width="316" height="316" 
viewBox="0 0 336.5 336.5" enable-background="new 0 0 336.5 336.5" xml:space="preserve">
<path fill="#CD9700" d="M218.3,250.5c0-1.1-0.8-2.2-1.8-2.2h-24.1c-1,0-1.8,1.1-1.8,2.2v14.1c0,1.4,0.8,2.5,1.8,2.5h24.1
	c1,0,1.8-1.2,1.8-2.5V250.5z M145.8,250.5c0-1.1-0.8-2.2-1.8-2.2h-24.1c-1.1,0-1.8,1.1-1.8,2.2v14.1c0,1.4,0.7,2.5,1.8,2.5H144
	c0.9,0,1.8-1.2,1.8-2.5V250.5z M228,211.6c0,1.1,0.9,2.1,2,2.1l14.7-3.3c1.1,0,2.1-1,2.1-2.3v-70.3c0-1.3-1-2.2-2.1-2.2l-14.7-4.1
	c-1,0-2,1-2,2.1V211.6z M108.5,133.6c0-1.1-0.9-2.1-2.1-2.1l-14.6,4.1c-1.1,0-2.1,0.9-2.1,2.2v70.3c0,1.2,1,2.3,2.1,2.3l14.6,3.3
	c1.2,0,2.1-1,2.1-2.1V133.6z M220.4,133.6c0-1.1-1-2.1-2.2-2.1H118.1c-1.2,0-2,1-2,2.1v78c0,1.1,0.9,2.1,2,2.1h100.1
	c1.2,0,2.2-1,2.2-2.1V133.6z M223,94.2h-54.7h-0.2h-54.8c-0.9,0-1.7,0.8-1.7,1.6l4.1,25.9c0,0.7,0.8,1.6,1.5,1.6h50.8h0.2H219
	c0.9,0,1.6-0.9,1.6-1.6l4.1-25.9C224.8,95,223.9,94.2,223,94.2 M165,50.7h6.5V28.1H165V50.7z M260.6,258.4c0,0-3.2,29.8-4.1,35.8
	c-0.9,5.9-6,6.1-5.8,6.1l-18.9-6.1c0,0-8.4-12.8-11-16.3c-2.5-3-31.8-2.5-52.4-2.5h-0.1h-0.1c-20.5,0-50.1-0.6-52.6,2.5
	c-2.6,3.6-10.9,16.3-10.9,16.3l-19.1,6.1c0.4,0-4.6-0.2-5.6-6.1c-0.9-6-4.1-35.8-4.1-35.8l9.7-153.3c0,0,1.9-20.6,31.4-20.5
	c12.2,0.2,38.6,0,48,0V60.2h-3.7V28.1h-27.5c-8.8,0-15.4,12.8-15.4,12.8c-0.7,1.2-2,1.7-3.2,1.1c-1.1-0.6-1.5-2.1-1-3.2
	c0.3-0.7,8-15.4,19.6-15.4h69.3c11.7,0,18.8,14.7,19.1,15.4c0.5,1.2,0.1,2.6-1.1,3.1c-1.1,0.5-2.4,0-3-1.1
	c-0.1-0.1-6.2-12.8-15-12.8H175v32.1h-3.5v24.4c9.3,0,35.9,0.2,48,0c29.4-0.1,31.2,20.5,31.2,20.5L260.6,258.4z M246.5,307.4l-2.5-1
	l-15.3-4.8c0,0-8.1-12.1-10.5-15.7c-2.5-4.1-37.4-2.7-50-2.7c-12.5,0-47.5-1.4-50.1,2.7c-2.3,3.6-10.5,15.7-10.5,15.7l-15.3,4.8
	l-2.5,1c-0.8,0.6-1.4,1.6-1.4,2.8c0,2,1.3,3.5,3.1,3.7h1.2h75.4h0.2h75.1h1.5c1.8-0.3,3-1.8,3-3.7C248,309,247.5,308,246.5,307.4"/>
</svg>
