<svg xmlns="http://www.w3.org/2000/svg" xmlns:xlink="http://www.w3.org/1999/xlink" width="87.126" height="75.635" viewBox="0 0 23.052 20.012" version="1.1"><defs><linearGradient id="c"><stop offset="0" stop-color="#b1ce5c" stop-opacity="1"/><stop offset="1" stop-color="#005e87" stop-opacity="1"/></linearGradient><linearGradient id="b"><stop offset="0" stop-color="#83b264" stop-opacity="1"/><stop offset="1" stop-color="#005e87" stop-opacity="1"/></linearGradient><linearGradient id="a"><stop offset="0" stop-color="#a8c357" stop-opacity="1"/><stop offset="1" stop-color="#006b77" stop-opacity="1"/></linearGradient><linearGradient xlink:href="#c" id="d" gradientUnits="userSpaceOnUse" x1="110.989" y1="112.548" x2="151.827" y2="112.548" gradientTransform="matrix(.3475 0 0 .3475 69.734 60.496)"/></defs><path style="line-height:normal;font-variant-ligatures:normal;font-variant-position:normal;font-variant-caps:normal;font-variant-numeric:normal;font-variant-alternates:normal;font-feature-settings:normal;text-indent:0;text-align:start;text-decoration-line:none;text-decoration-style:solid;text-decoration-color:#000;text-transform:none;text-orientation:mixed;shape-padding:0;isolation:auto;mix-blend-mode:normal" d="M123.304 92.047c-1.42.026-2.665 1.237-2.665 2.842v6.594l-5.86-7.293c-.836-1.106-2.13-1.468-3.177-1.144a2.67 2.67 0 0 0-1.872 2.546.8.8 0 1 0 1.599 0c0-.542.318-.887.745-1.019.427-.132.94-.068 1.428.58l.007.01 7.13 8.872v2.322c0 .725-.376 1.211-.76 1.382-.384.171-.805.171-1.351-.53l-.003-.003-7.405-9.281.013.017c-.623-.825-1.504-1.256-2.355-1.275a2.523 2.523 0 0 0-.83.12c-1.067.344-1.863 1.415-1.863 2.737v7.2c0 1.604 1.246 2.815 2.665 2.841a2.818 2.818 0 0 0 2.08-.88c.491-.512.788-1.144.788-1.823l.035-3.15a.8.8 0 1 0-1.598-.018l-.035 3.165v.004c0 .146-.115.478-.344.717-.229.24-.523.394-.897.387-.574-.01-1.096-.412-1.096-1.243v-7.2c0-.728.348-1.084.756-1.216.407-.132.925-.056 1.418.597l.006.008 7.404 9.28c.882 1.13 2.232 1.463 3.26 1.006 1.009-.448 1.68-1.515 1.707-2.768a.8.8 0 0 0 .002-.075v-.892c.704.331 1.46.397 2.103.158 1.07-.399 1.866-1.415 1.866-2.623v-.001l-.034-8.248c0-.678-.297-1.31-.788-1.823a2.818 2.818 0 0 0-2.08-.88zm.029 1.598c.374-.006.668.149.897.388.23.24.343.57.343.717v.001l.035 8.248c0 .473-.365.954-.825 1.125-.46.172-.956.157-1.53-.63l-.01-.015-.005-.007v-8.584c0-.83.521-1.232 1.095-1.243z" color="#000" font-style="normal" font-variant="normal" font-weight="400" font-stretch="normal" font-size="medium" font-family="sans-serif" text-decoration="none" letter-spacing="normal" word-spacing="normal" writing-mode="lr-tb" direction="ltr" dominant-baseline="auto" baseline-shift="baseline" text-anchor="start" white-space="normal" clip-rule="nonzero" display="inline" overflow="visible" visibility="visible" opacity="1" color-interpolation="sRGB" color-interpolation-filters="linearRGB" solid-color="#000" solid-opacity="1" vector-effect="none" fill="url(#d)" fill-opacity="1" fill-rule="nonzero" stroke="none" stroke-width="1.599" stroke-linecap="round" stroke-linejoin="miter" stroke-miterlimit="4" stroke-dashoffset="0" stroke-opacity="1" color-rendering="auto" image-rendering="auto" shape-rendering="auto" text-rendering="auto" transform="translate(-104.62 -90.8)"/></svg>