<svg width="45" height="45" xmlns="http://www.w3.org/2000/svg" xml:space="preserve"><path d="M23.218 3.679c10.179 0 18.43 8.251 18.43 18.429s-8.251 18.431-18.43 18.431c-10.18 0-18.432-8.253-18.432-18.431S13.038 3.679 23.218 3.679" fill="#FFF"/><path d="M4.784 21.948c.088-10.181 8.414-18.359 18.594-18.271 2.148.02 4.208.404 6.121 1.103l-9.461 6.698-.469 1.014 4.538-.578-9.974 22.353 13.924-.009 3.93-28.362c5.804 3.145 9.723 9.313 9.66 16.375-.088 10.18-8.413 18.357-18.594 18.269-10.177-.092-18.358-8.412-18.269-18.592" fill="#F47920"/><path d="M-52.471 28.6s5.844-3.17 8.336-4.4l5.003-2.595s2.354-.997 2.981-1.338c1.648-.892 4.334-1.639 5.901-1.026 1.185.457-1.079 2.723-2.144 2.603l-.565.069a6.104 6.104 0 0 0-.859.686c-1.85 1.923-3.149 3.665-4.148 5.554a29.11 29.11 0 0 0-1.704 3.893c-.252.715-.205 1.635.265 1.939.911.587 6.682-2.613 9.222-3.909 3.361-1.714 4.991-2.56 7.032-3.429 2.331-.995 4.56-1.784 5.573-.919.539.462.347 1.617.257 2.171-.309 1.885-.386 2.488-.791 4.285-.375 1.681.252 2.484.791 2.779.995.549 4.011-.688 4.868-1.029 3.628-1.453 8.431-3.496 13.168-5.813 4.732-2.316 10.714-5.078 15.788-6.246 3.316-.764 7.572-1.901 10.443-2.362 4.733-.755 8.436-.856 9.189-.479.869.434 1.438.642 1.508 1.374.072.686-1.678.839-6.41.839-1.92 0-5.609.392-7.406.547-3.908.343-9.875 1.87-11.453 2.348C7.429 25.649.51 28.943-4.771 32.014c-2.963 1.722-6.764 3.958-8.712 4.904-2.537 1.232-4.019 1.742-5.622 1.438-.995-.187-1.988-.976-2.109-2.179-.224-2.251.359-3.448 1.286-5.947.342-.924 1.273-2.672 1.062-3.24-.239-.65-1.747.171-2.365.463-.583.273-1.932.884-2.708 1.25-1.956.928-3.466 1.927-5.351 3.019-2.331 1.354-4.49 3.033-9.053 5.554-1.005.556-3.254 1.511-4.387.755-.619-.412-1.11-1.457-1.134-1.901-.118-2.382 1.235-5.025 3.122-7.597 1.178-1.609 2.695-3.027 4.183-4.628.791-.85 1.809-1.668 2.434-2.129-.405.013-1.303.139-1.404.139-.627 0-1.922.206-3.293.822-1.116.505-3.007 1.143-8.226 4.323-.939.594-1.947 1.254-3.055 2.003-2.66 1.808-9.123 6.107-12.311 7.923-3.091 1.763-6.017 2.933-7.817 1.611-1.03-.755-1.375-2.539-.961-4.46.616-2.861 1.03-3.822 1.715-5.878.821-2.461 1.68-3.29 1.168-4.269-.641-1.216-3.815-.199-4.667.135-3.977 1.58-7.438 3.328-13.063 7.014-2.476 1.622-9.809 7.218-16.495 12.396-.703.545-2.504 2.009-3.292 1.765-1.439-.445-1.607-3.004-.207-5.417.859-1.473 1.271-1.852 2.16-2.849.619-.547.892-.957 1.166-.749.273.2-.033.854-.308 1.953-.136 1.302 1.441-.291 2.917-1.319 4.819-3.364 3.874-2.743 5.93-4.083 3.025-1.965 4.721-3.14 9.912-5.983 7.954-4.353 10.446-4.686 12.649-4.938 6.039-.686 5.523 2.859 5.285 3.516-1.579 4.304-2.952 9.414-1.853 10.716.48.444.823.341 1.781-.103 1.633-.758 6.127-3.027 7.65-3.895 1.712-.978 4.172-2.398 6.273-3.549" fill="#00AB4E"/></svg>